# AST/ASF file generated using VICON BodyLanguage
# -----------------------------------------------
:version 1.10
:name VICON
:units
  mass 1.0
  length 0.45
  angle deg
:documentation
   .ast/.asf automatically generated from VICON data using
   VICON BodyBuilder and BodyLanguage model FoxedUp or BRILLIANT.MOD
:root
   order TX TY TZ RX RY RZ
   axis XYZ
   position 0 0 0  
   orientation 0 0 0 
:bonedata
  begin
     id 1 
     name lhipjoint
     direction 0.57768 -0.667037 0.470475 
     length 2.36008 
     axis 0 0 0  XYZ
  end
  begin
     id 2 
     name lfemur
     direction 0.34202 -0.939693 0  
     length 6.97235  
     axis 0 0 20  XYZ
    dof rx ry rz
    limits (-160.0 20.0)
           (-70.0 70.0)
           (-60.0 70.0)
  end
  begin
     id 3 
     name ltibia
     direction 0.34202 -0.939693 0   
     length 6.93428   
     axis 0 0 20   XYZ
    dof rx
    limits (-10.0 170.0)
  end
  begin
     id 4 
     name lfoot
     direction 0.133018 -0.365463 0.921272   
     length 2.18603   
     axis -90 7.62852e-016 20   XYZ
    dof rx rz
    limits (-45.0 90.0)
           (-70.0 20.0)
  end
  begin
     id 5 
     name ltoes
     direction 1.53519e-011 -4.22055e-011 1   
     length 1.07924   
     axis -90 7.62852e-016 20   XYZ
    dof rx
    limits (-90.0 20.0)
  end
  begin
     id 6 
     name rhipjoint
     direction -0.577712 -0.667019 0.470462   
     length 2.36015  
     axis 0 0 0  XYZ 
  end
  begin
     id 7 
     name rfemur
     direction -0.34202 -0.939693 0   
     length 6.71195   
     axis 0 0 -20   XYZ
    dof rx ry rz
    limits (-160.0 20.0)
           (-70.0 70.0)
           (-70.0 60.0)
  end
  begin
     id 8 
     name rtibia
     direction -0.34202 -0.939693 0   
     length 7.04592   
     axis 0 0 -20   XYZ
    dof rx
    limits (-10.0 170.0)
 end
 begin
     id 9 
     name rfoot
     direction -0.113796 -0.312651 0.943027   
     length 2.03846  
     axis -90 -7.62852e-016 -20   XYZ
    dof rx rz
    limits (-45.0 90.0)
           (-20.0 70.0)
  end
  begin
     id 10 
     name rtoes
     direction -1.53586e-011 -4.218e-011 1   
     length 1.01562   
     axis -90 -7.62852e-016 -20   XYZ
    dof rx
    limits (-90.0 20.0)
  end
  begin
     id 11 
     name lowerback
     direction -0.0417299 0.991937 -0.119667   
     length 2.05257   
     axis 0 0 0   XYZ
    dof rx ry rz
    limits (-20.0 45.0)
           (-30.0 30.0)
           (-30.0 30.0)
  end
  begin
     id 12 
     name upperback
     direction -0.00017666 0.999999 0.00105178   
     length 2.05693   
     axis 0 0 0   XYZ
    dof rx ry rz
    limits (-20.0 45.0)
           (-30.0 30.0)
           (-30.0 30.0)
  end
  begin
     id 13 
     name thorax
     direction 0.0185169 0.998203 0.0569866   
     length 2.0932   
     axis 0 0 0   XYZ
    dof rx ry rz
    limits (-20.0 45.0)
           (-30.0 30.0)
           (-30.0 30.0)
  end
  begin
     id 14 
     name lowerneck
     direction -0.0212406 0.982645 0.184277   
     length 1.72509   
     axis 0 0 0   XYZ
    dof rx ry rz
    limits (-20.0 45.0)
           (-30.0 30.0)
           (-30.0 30.0)
  end
  begin
     id 15 
     name upperneck
     direction 0.00528579 0.965323 -0.261004   
     length 1.76294   
     axis 0 0 0   XYZ
    dof rx ry rz
    limits (-20.0 45.0)
           (-30.0 30.0)
           (-30.0 30.0)
  end
  begin
     id 16
     name head
     direction 0.00695421 0.994078 -0.108445  
     length 1.78678  
     axis 0 0 0   XYZ
    dof rx ry rz
    limits (-20.0 45.0)
           (-30.0 30.0)
           (-30.0 30.0)
  end
  begin
     id 17 
     name lclavicle
     direction 0.97277 0.211305 -0.095232  
     length 3.84823  
     axis 0 0 0   XYZ
    dof ry rz
    limits (-20.0 10.0)
           (0.0 20.0)
  end
  begin
     id 18 
     name lhumerus
     direction 1 -4.48957e-011 -1.98313e-027   
     length 4.97185   
     axis 180 -30 -90   XYZ
    dof rx ry rz
    limits (-60.0 90.0)
           (-90.0 90.0)
           (-90.0 90.0)
  end
  begin
     id 19
     name lradius
     direction 1 -4.4898e-011 7.31063e-027   
     length 3.35811   
     axis 180 -30 -90   XYZ
    dof rx
    limits (-10.0 170.0)
  end
  begin
     id 20
     name lwrist
     direction 1 -4.48938e-011 9.95048e-027   
     length 1.67905   
     axis -8.75986e-015 90 90   XYZ
    dof ry
    limits (-180.0 0.0)
 end
  begin
     id 21 
     name lhand
     direction 1 -4.4901e-011 1.9901e-026   
     length 0.622776   
     axis -1.26985e-014 90 90   XYZ
    dof rx rz
    limits (-90.0 90.0)
           (-45.0 45.0)
  end
  begin
     id 22 
     name lfingers
     direction 1 -4.48961e-011 3.98019e-026   
     length 0.502098   
     axis -2.5397e-014 90 90   XYZ
    dof rx
    limits (0.0 90.0)
  end
  begin
     id 23
     name lthumb
     direction 0.707107 -6.34933e-011 0.707107   
     length 0.720915   
     axis -90 45 2.85299e-015   XYZ
    dof rx rz
    limits (-45.0 45.0)
           (-45.0 45.0)
  end
  begin
     id 24 
     name rclavicle
     direction -0.990867 0.133739 -0.0172226   
     length 3.78845  
     axis 0 0 0   XYZ 
    dof ry rz
    limits (-10.0 20.0)
           (-20.0 0.0)
  end
  begin
     id 25 
     name rhumerus
     direction -1 -4.48972e-011 -1.99267e-027  
     length 4.96493   
     axis 180 30 90   XYZ
    dof rx ry rz
    limits (-90.0 60.0)
           (-90.0 90.0)
           (-90.0 90.0)
  end
  begin
     id 26 
     name rradius
     direction -1 -4.48969e-011 8.96093e-027   
     length 3.34929   
     axis 180 30 90   XYZ
    dof rx
    limits (-10.0 170.0)
  end
  begin
     id 27 
     name rwrist
     direction -1 -4.48953e-011 9.95048e-027   
     length 1.67464   
     axis -8.75986e-015 -90 -90   XYZ
    dof ry
    limits (-180.0 0.0)
  end
  begin
     id 28
     name rhand
     direction -1 -4.49001e-011 1.9901e-026   
     length 0.638041   
     axis -1.26985e-014 -90 -90   XYZ
    dof rx rz
    limits (-90.0 90.0)
           (-45.0 45.0)
  end
  begin
     id 29
     name rfingers
     direction -1 -4.48967e-011 3.98019e-026   
     length 0.514405   
     axis -2.5397e-014 -90 -90   XYZ
    dof rx
    limits (0.0 90.0)
  end
  begin
     id 30
     name rthumb
     direction -0.707107 -6.34904e-011 0.707107   
     length 0.738586   
     axis -90 -45 -2.85299e-015   XYZ
    dof rx rz
    limits (-45.0 45.0)
           (-45.0 45.0)
  end
:hierarchy
  begin
    root lhipjoint rhipjoint lowerback
    lhipjoint lfemur
    lfemur ltibia
    ltibia lfoot
    lfoot ltoes
    rhipjoint rfemur
    rfemur rtibia
    rtibia rfoot
    rfoot rtoes
    lowerback upperback
    upperback thorax
    thorax lowerneck lclavicle rclavicle
    lowerneck upperneck
    upperneck head
    lclavicle lhumerus
    lhumerus lradius
    lradius lwrist
    lwrist lhand lthumb
    lhand lfingers
    rclavicle rhumerus
    rhumerus rradius
    rradius rwrist
    rwrist rhand rthumb
    rhand rfingers
  end

#!OML:ASF E:\Mandelcareful walks\Project 1\Capture day 1\Session 1\Subject1.ASF
:FULLY-SPECIFIED
:DEGREES
143
root -8.25691 1.69913 0.954383 132.569 85.6752 26.8914
lowerback -18.247 -0.692293 3.76717
upperback -6.43231 -1.33225 0.220363
thorax 3.21806 -0.570175 -2.16849
lowerneck -23.5734 13.117 0.985473
upperneck 9.8802 19.6024 -12.811
head 8.30905 8.22038 -1.52973
rclavicle 3.18055e-015 2.13694e-015
rhumerus -23.8838 -14.1067 -19.5165
rradius 138.015
rwrist -17.7426
rhand -33.7266 -26.2142
rfingers 7.12502
rthumb -6.91562 -56.0812
lclavicle 3.18055e-015 2.13694e-015
lhumerus -21.6407 15.808 20.0574
lradius 132.039
lwrist 17.6091
lhand -39.4738 -25.5006
lfingers 7.12502
lthumb -12.4605 4.10793
rfemur -18.815 -12.6739 17.9313
rtibia 24.5378
rfoot -17.7028 -12.892
rtoes -8.12098
lfemur -25.1623 8.43676 -20.5537
ltibia 37.2741
lfoot -23.9117 11.5919
ltoes -5.54991
144
root -8.26201 1.69874 0.956698 132.273 85.744 26.5107
lowerback -18.3596 -0.650921 3.91087
upperback -6.55409 -1.29432 0.169329
thorax 3.14316 -0.552137 -2.29686
lowerneck -23.3946 12.5091 0.740191
upperneck 8.74466 18.7317 -12.9366
head 7.83288 7.89757 -1.71799
rclavicle 4.49253e-014 6.81086e-014
rhumerus -27.6399 -12.6867 -21.2954
rradius 138.291
rwrist -16.7381
rhand -34.7539 -25.2627
rfingers 7.12502
rthumb -7.90724 -55.0949
lclavicle 4.49253e-014 6.81086e-014
lhumerus -24.753 14.619 20.8122
lradius 132.155
lwrist 17.7332
lhand -40.0796 -27.3517
lfingers 7.12502
lthumb -13.0445 2.22037
rfemur -18.9292 -12.4321 18.0035
rtibia 24.5793
rfoot -17.4757 -12.5832
rtoes -8.59635
lfemur -25.2355 8.34949 -20.4168
ltibia 37.2583
lfoot -24.1051 11.3341
ltoes -5.01088
145
root -8.26578 1.70205 0.95817 134.998 85.9865 29.1867
lowerback -18.4588 -0.578546 4.27645
upperback -6.68518 -1.25707 0.205458
thorax 3.04667 -0.536463 -2.45829
lowerneck -23.1514 11.8774 0.5153
upperneck 7.61095 17.8134 -12.9901
head 7.34315 7.55854 -1.88987
rclavicle 3.18055e-015 2.01269e-015
rhumerus -31.4748 -11.1108 -23.2978
rradius 138.272
rwrist -15.9878
rhand -36.1424 -24.2376
rfingers 7.12502
rthumb -9.24721 -54.0148
lclavicle 3.18055e-015 2.01269e-015
lhumerus -27.8632 13.4059 21.8096
lradius 132.006
lwrist 17.0428
lhand -41.0002 -28.6615
lfingers 7.12502
lthumb -13.9318 0.851734
rfemur -18.9553 -12.2972 18.3707
rtibia 24.4592
rfoot -17.3635 -12.0599
rtoes -9.03813
lfemur -25.3884 8.37343 -20.0455
ltibia 37.3507
lfoot -24.1385 11.2387
ltoes -5.22502
146
root -8.27338 1.70792 0.957968 139.913 86.1972 34.2911
lowerback -18.3303 -0.554334 4.73381
upperback -6.708 -1.30229 0.263907
thorax 2.93887 -0.567168 -2.66167
lowerneck -23.7128 11.1911 -0.157499
upperneck 7.32722 16.9725 -12.3076
head 7.15374 7.20191 -1.7022
rclavicle 4.29375e-014 6.20954e-014
rhumerus -35.2307 -9.67429 -25.5241
rradius 138.181
rwrist -15.8075
rhand -37.2995 -23.3817
rfingers 7.12502
rthumb -10.3636 -53.1064
lclavicle 4.29375e-014 6.20954e-014
lhumerus -30.9312 11.8628 23.1834
lradius 132.17
lwrist 17.2128
lhand -42.0637 -29.1056
lfingers 7.12502
lthumb -14.9565 0.334361
rfemur -18.6837 -12.3847 18.7568
rtibia 24.328
rfoot -17.3962 -11.4246
rtoes -9.2115
lfemur -25.3135 8.34688 -19.5952
ltibia 37.4778
lfoot -24.0882 11.2271
ltoes -5.64096
147
root -8.2793 1.70963 0.960851 142.605 86.2343 37.1805
lowerback -18.1948 -0.622111 4.97786
upperback -6.67986 -1.43651 0.303797
thorax 2.88051 -0.640901 -2.78186
lowerneck -23.8224 10.4771 -0.573536
upperneck 6.01637 15.996 -12.224
head 6.64216 6.83895 -1.79061
rclavicle -2.38542e-015 -6.0679e-014
rhumerus -39.0538 -8.2123 -28.5042
rradius 138.061
rwrist -14.4757
rhand -38.5818 -21.9501
rfingers 7.12502
rthumb -11.6004 -51.609
lclavicle -2.38542e-015 -6.0679e-014
lhumerus -34.1718 10.6865 24.4215
lradius 132.106
lwrist 16.7118
lhand -42.1932 -30.7858
lfingers 7.12502
lthumb -15.0813 -1.35522
rfemur -18.4128 -12.5184 18.8894
rtibia 24.2999
rfoot -17.4375 -10.8652
rtoes -9.21755
lfemur -25.1909 8.33178 -19.3973
ltibia 37.572
lfoot -24.1137 11.243
ltoes -6.60291
148
root -8.28404 1.71075 0.966336 140.696 86.0694 35.3223
lowerback -18.1251 -0.695124 4.75025
upperback -6.72436 -1.48783 0.285713
thorax 2.80011 -0.666871 -2.68016
lowerneck -24.3974 9.66401 -1.23891
upperneck 5.28142 14.9942 -11.6905
head 6.33465 6.42954 -1.67297
rclavicle -4.45278e-014 -7.09164e-014
rhumerus -42.7268 -6.97446 -31.1777
rradius 137.316
rwrist -12.4927
rhand -40.2096 -20.4283
rfingers 7.12502
rthumb -13.1698 -49.9923
lclavicle -4.45278e-014 -7.09164e-014
lhumerus -37.3365 9.42142 26.4796
lradius 131.809
lwrist 15.1838
lhand -42.6708 -32.8138
lfingers 7.12502
lthumb -15.5413 -3.41828
rfemur -18.3678 -12.6473 18.6521
rtibia 24.3371
rfoot -17.2067 -10.6647
rtoes -9.37433
lfemur -25.2027 8.32571 -19.6246
ltibia 37.6185
lfoot -24.2747 11.3702
ltoes -8.14347
149
root -8.29734 1.71626 0.970511 133.944 85.6634 28.6298
lowerback -18.0114 -0.797165 4.21086
upperback -6.77153 -1.51711 0.129153
thorax 2.70281 -0.679818 -2.54321
lowerneck -24.813 8.92085 -1.81052
upperneck 4.44288 14.0531 -11.1395
head 5.9878 6.06543 -1.55787
rclavicle -4.85035e-014 3.3048e-014
rhumerus -46.4389 -5.80127 -33.9654
rradius 136.327
rwrist -9.73337
rhand -42.47 -19.39
rfingers 7.12502
rthumb -15.3479 -48.8004
lclavicle -4.85035e-014 3.3048e-014
lhumerus -40.3317 8.32552 28.4761
lradius 131.279
lwrist 13.9598
lhand -44.106 -34.6333
lfingers 7.12502
lthumb -16.9232 -5.35063
rfemur -18.3715 -12.6685 17.8913
rtibia 24.4401
rfoot -16.945 -10.6949
rtoes -8.92222
lfemur -25.1655 8.35705 -20.3343
ltibia 37.6091
lfoot -24.3975 11.6347
ltoes -8.98052
150
root -8.3088 1.71848 0.975143 130.403 85.5231 25.103
lowerback -18.0193 -0.834108 4.04572
upperback -6.80876 -1.53247 0.0383363
thorax 2.66916 -0.687086 -2.54848
lowerneck -25.493 8.09635 -2.45076
upperneck 4.19804 13.046 -10.1245
head 5.83678 5.64639 -1.27362
rclavicle -2.0276e-014 3.12589e-014
rhumerus -50.0094 -5.04916 -36.6827
rradius 135.888
rwrist -9.16273
rhand -43.6479 -19.1196
rfingers 7.12502
rthumb -16.4823 -48.4395
lclavicle -2.0276e-014 3.12589e-014
lhumerus -43.1758 7.40621 30.6169
lradius 130.696
lwrist 12.8206
lhand -42.8135 -37.4012
lfingers 7.12502
lthumb -15.6787 -8.01645
rfemur -18.4396 -12.3979 17.4619
rtibia 24.6442
rfoot -17.272 -10.3889
rtoes -7.92891
lfemur -25.156 8.58629 -20.6979
ltibia 37.5642
lfoot -24.2958 11.8065
ltoes -9.52017
151
root -8.31313 1.71655 0.982763 129.567 85.7392 24.1855
lowerback -18.1504 -0.82645 4.32401
upperback -6.86361 -1.57308 0.0509074
thorax 2.66599 -0.710444 -2.70295
lowerneck -25.7129 7.30541 -2.86767
upperneck 3.37648 12.0058 -9.52057
head 5.49171 5.23979 -1.17245
rclavicle 2.34566e-014 8.44835e-014
rhumerus -53.0315 -4.41126 -41.0493
rradius 134.938
rwrist -7.56425
rhand -44.5602 -18.1984
rfingers 7.12502
rthumb -17.3604 -47.4431
lclavicle 2.34566e-014 8.44835e-014
lhumerus -45.998 6.71184 32.5399
lradius 130.267
lwrist 11.9642
lhand -43.6475 -39.9388
lfingers 7.12502
lthumb -16.4819 -10.6188
rfemur -18.6332 -11.9657 17.5345
rtibia 24.8466
rfoot -17.624 -9.99412
rtoes -7.89413
lfemur -25.2301 9.01603 -20.6276
ltibia 37.5266
lfoot -24.1022 11.7714
ltoes -9.71352
152
root -8.32129 1.71731 0.98838 128.485 85.8237 23.0545
lowerback -18.2387 -0.801562 4.44733
upperback -6.97132 -1.55437 0.00300216
thorax 2.59194 -0.703427 -2.82029
lowerneck -25.3211 6.54862 -2.9515
upperneck 2.04121 10.886 -9.3032
head 4.94811 4.81796 -1.26666
rclavicle 7.91163e-014 9.92432e-014
rhumerus -56.2148 -3.75718 -43.6108
rradius 134.388
rwrist -7.44254
rhand -45.5275 -17.4012
rfingers 7.12502
rthumb -18.2912 -46.5612
lclavicle 7.91163e-014 9.92432e-014
lhumerus -48.5409 5.90429 34.4993
lradius 129.883
lwrist 11.3832
lhand -45.5533 -41.8242
lfingers 7.12502
lthumb -18.316 -12.6665
rfemur -18.7847 -11.7887 17.5307
rtibia 24.9374
rfoot -17.2276 -9.91849
rtoes -8.35578
lfemur -25.2901 9.30341 -20.6721
ltibia 37.5325
lfoot -24.1086 11.7717
ltoes -9.04215
153
root -8.33098 1.71938 0.989303 129.473 85.8338 24.0835
lowerback -18.2355 -0.788625 4.63594
upperback -7.10226 -1.55682 -0.0712829
thorax 2.44034 -0.711046 -3.00417
lowerneck -24.9939 5.79545 -3.14085
upperneck 1.1268 9.80616 -8.73651
head 4.52876 4.39766 -1.21326
rclavicle -2.34566e-014 -4.48259e-014
rhumerus -59.2953 -3.23655 -46.0564
rradius 133.723
rwrist -6.20128
rhand -46.6706 -16.8288
rfingers 7.12502
rthumb -19.3906 -45.882
lclavicle -2.34566e-014 -4.48259e-014
lhumerus -50.836 5.0645 36.7255
lradius 129.306
lwrist 10.5919
lhand -46.975 -43.9235
lfingers 7.12502
lthumb -19.6833 -14.9
rfemur -18.7657 -11.6265 17.4828
rtibia 24.9801
rfoot -16.7034 -10.1875
rtoes -7.60001
lfemur -25.3095 9.38835 -20.6778
ltibia 37.5604
lfoot -24.1419 11.8595
ltoes -9.17199
154
root -8.33762 1.72144 0.989189 130.335 85.8286 24.9377
lowerback -18.266 -0.801908 4.77831
upperback -7.16156 -1.59588 -0.0960581
thorax 2.38298 -0.734519 -3.11848
lowerneck -25.1048 5.16141 -3.38112
upperneck 0.612861 8.9581 -8.07996
head 4.30682 4.05578 -1.07537
rclavicle -8.0309e-014 -6.29153e-014
rhumerus -61.5463 -3.01911 -49.2023
rradius 132.572
rwrist -3.55259
rhand -47.5608 -16.7456
rfingers 7.12502
rthumb -20.2463 -45.7104
lclavicle -8.0309e-014 -6.29153e-014
lhumerus -52.819 4.61602 38.9408
lradius 128.643
lwrist 9.59936
lhand -47.7501 -46.3665
lfingers 7.12502
lthumb -20.4283 -17.421
rfemur -18.736 -11.2441 17.3622
rtibia 25.013
rfoot -16.7626 -10.3891
rtoes -6.67357
lfemur -25.3954 9.5187 -20.7229
ltibia 37.5983
lfoot -23.9172 11.9454
ltoes -10.6556
155
root -8.34333 1.72083 0.988737 132.103 85.8723 26.5608
lowerback -18.5055 -0.840963 4.93065
upperback -7.15887 -1.68856 -0.0462874
thorax 2.49759 -0.779121 -3.17636
lowerneck -25.422 4.74836 -3.34157
upperneck 0.18989 8.37584 -7.73372
head 4.18422 3.81566 -1.03842
rclavicle -3.73715e-014 -7.688e-014
rhumerus -63.0891 -2.81103 -51.9148
rradius 131.602
rwrist -1.73199
rhand -47.857 -17.4763
rfingers 7.12502
rthumb -20.531 -46.4107
lclavicle -3.73715e-014 -7.688e-014
lhumerus -54.4221 4.4344 40.9679
lradius 127.929
lwrist 8.80687
lhand -48.145 -48.5643
lfingers 7.12502
lthumb -20.8077 -19.66
rfemur -18.813 -11.1399 17.4238
rtibia 24.928
rfoot -16.9265 -10.326
rtoes -7.4087
lfemur -25.6468 9.56086 -20.7019
ltibia 37.6887
lfoot -23.8625 12.0777
ltoes -11.9243
156
root -8.35239 1.72019 0.989266 135.279 86.036 29.8167
lowerback -18.5111 -0.902925 5.14304
upperback -7.13238 -1.81947 0.0985702
thorax 2.51364 -0.847299 -3.16914
lowerneck -25.7576 4.41357 -3.48688
upperneck 0.0210176 7.94915 -7.19047
head 4.13191 3.64613 -0.890791
rclavicle 3.45885e-014 -2.78299e-015
rhumerus -64.2593 -2.44132 -54.0445
rradius 130.701
rwrist -0.815245
rhand -47.5938 -19.9293
rfingers 7.12502
rthumb -20.2781 -48.8907
lclavicle 3.45885e-014 -2.78299e-015
lhumerus -55.7991 4.31906 42.6797
lradius 127.167
lwrist 7.7501
lhand -48.528 -50.1647
lfingers 7.12502
lthumb -21.1757 -21.3012
rfemur -18.6035 -11.2182 17.6985
rtibia 24.706
rfoot -16.8627 -10.316
rtoes -7.96586
lfemur -25.6545 9.43033 -20.4116
ltibia 37.8323
lfoot -24.1337 12.2564
ltoes -12.0285
